<?xml version="1.0" standalone="no"?>
<!DOCTYPE svg PUBLIC "-//W3C//DTD SVG 20010904//EN"
 "http://www.w3.org/TR/2001/REC-SVG-20010904/DTD/svg10.dtd">
<svg version="1.0" xmlns="http://www.w3.org/2000/svg"
 width="1536.000000pt" height="1536.000000pt" viewBox="0 0 1536.000000 1536.000000"
 preserveAspectRatio="xMidYMid meet">

<g transform="translate(0.000000,1536.000000) scale(0.100000,-0.100000)"
fill="#000000" stroke="none">
<path d="M7410 14093 c-41 -2 -151 -10 -245 -19 -1867 -169 -3522 -1219 -4475
-2839 -106 -181 -291 -558 -370 -754 -559 -1393 -559 -2929 0 -4322 79 -196
264 -573 370 -754 898 -1526 2420 -2550 4170 -2804 293 -43 472 -55 820 -55
348 0 527 12 820 55 1748 254 3273 1279 4170 2804 100 171 289 554 360 730
573 1420 573 2950 0 4370 -71 176 -260 559 -360 730 -679 1154 -1729 2036
-2975 2500 -727 270 -1492 390 -2285 358z m4265 -2205 c-13 -61 -109 -201
-264 -383 -271 -318 -481 -449 -841 -523 -64 -13 -253 -16 -1300 -22 -1344 -7
-1258 -3 -1419 -67 -227 -90 -426 -285 -555 -540 -37 -74 -152 -342 -211 -493
-21 -52 -91 -224 -156 -381 -65 -158 -142 -349 -173 -425 -30 -77 -123 -299
-206 -494 -190 -444 -295 -697 -304 -732 -3 -15 -15 -35 -25 -45 -25 -24 -95
-186 -120 -276 -11 -39 -27 -132 -36 -206 -30 -251 -66 -367 -162 -519 -57
-90 -205 -230 -293 -276 -113 -59 -173 -122 -232 -241 -112 -224 -316 -662
-420 -900 -142 -327 -154 -452 -58 -615 49 -84 119 -149 201 -187 170 -80 346
-79 516 2 57 28 95 57 162 123 90 90 131 151 219 327 51 103 342 731 342 739
0 3 13 33 29 68 181 395 393 887 448 1038 43 118 40 167 -14 276 -36 72 -36
74 -18 94 22 24 64 26 113 3 165 -74 490 -317 642 -479 97 -103 210 -231 210
-238 0 -3 -5 -6 -11 -6 -5 0 -26 -11 -46 -25 l-36 -24 -54 49 c-85 78 -129 68
-231 -52 -126 -149 -222 -319 -452 -803 -391 -822 -468 -974 -558 -1110 -116
-172 -232 -289 -387 -387 -374 -236 -885 -236 -1235 2 -58 40 -189 162 -237
222 -73 91 -152 263 -179 388 -18 87 -18 315 1 424 8 48 28 126 44 174 45 133
273 688 361 877 5 11 47 108 93 215 47 107 121 278 166 380 58 131 84 201 88
240 6 64 23 110 40 110 20 0 60 86 93 202 18 62 34 120 37 128 3 11 -7 20 -31
28 -29 11 -36 18 -36 41 0 64 108 151 111 89 1 -22 1 -22 9 2 5 14 18 50 28
80 l19 55 1 -77 c1 -47 -5 -95 -14 -120 -8 -24 -22 -73 -29 -110 -8 -38 -25
-85 -38 -105 -13 -21 -43 -87 -66 -148 -24 -60 -61 -144 -81 -185 -73 -146
-161 -395 -176 -495 -3 -27 -15 -67 -25 -87 -56 -111 -216 -540 -322 -863
-113 -346 -155 -561 -143 -730 23 -334 270 -631 610 -734 102 -31 288 -46 400
-33 135 17 210 39 321 93 120 58 206 121 306 226 162 170 226 278 444 758 26
56 136 286 258 540 223 463 458 828 573 892 22 12 56 23 77 25 44 3 45 7 13
37 -22 21 -28 22 -59 12 -54 -18 -121 -65 -159 -112 -108 -133 -362 -553 -463
-764 -34 -71 -97 -202 -140 -290 -42 -88 -106 -225 -142 -305 -101 -225 -226
-465 -301 -578 -150 -224 -348 -378 -579 -449 -80 -24 -103 -27 -258 -27 -187
-1 -254 12 -386 73 -150 70 -309 220 -377 356 -30 60 -69 184 -82 256 -29 166
34 421 234 949 62 164 233 529 248 530 3 0 -18 -55 -49 -122 -100 -222 -120
-272 -163 -413 -23 -77 -46 -156 -51 -175 -12 -52 -59 -183 -70 -196 -5 -6 -6
-14 -2 -17 3 -4 -2 -31 -11 -62 -24 -76 -14 -93 12 -20 26 76 90 231 130 315
36 77 89 199 127 290 41 98 138 279 206 383 82 124 132 235 211 472 11 33 28
78 38 100 54 120 130 349 130 391 0 25 -17 15 -42 -23 -26 -41 -54 -105 -149
-346 -51 -128 -69 -162 -91 -175 -35 -21 -47 -55 -59 -172 -7 -75 -16 -110
-44 -169 -20 -41 -37 -72 -40 -69 -3 2 9 36 25 75 20 47 33 103 41 169 10 88
18 114 74 234 59 126 74 167 105 280 12 43 26 75 84 184 30 57 31 60 12 53 -9
-4 -5 10 11 39 21 37 28 43 40 33 11 -10 14 -10 11 2 -2 7 11 20 27 27 27 12
34 26 73 149 24 74 56 164 73 199 16 36 29 70 30 77 0 9 2 9 5 0 3 -6 -11 -53
-30 -105 -54 -143 -97 -280 -97 -308 -1 -14 2 -37 6 -51 6 -22 2 -30 -24 -48
-25 -18 -31 -29 -31 -60 0 -46 -62 -239 -119 -372 -22 -53 -41 -105 -41 -116
0 -10 -4 -23 -9 -28 -9 -11 -72 -179 -114 -305 -22 -65 -51 -133 -152 -355
-12 -27 -47 -108 -78 -180 -30 -71 -101 -238 -158 -370 -205 -482 -227 -583
-169 -773 21 -71 76 -176 123 -234 75 -94 218 -186 349 -227 87 -26 243 -37
328 -21 91 16 232 74 315 128 81 54 212 182 273 267 57 79 118 193 210 390 40
88 94 203 119 255 25 52 56 118 68 145 12 28 39 86 60 130 20 44 55 121 77
170 22 50 48 108 58 130 47 106 82 192 130 320 72 195 193 499 224 565 21 46
26 69 26 142 0 84 -1 87 -31 112 -48 41 -60 36 -33 -16 38 -74 9 -171 -238
-783 -210 -522 -585 -1327 -699 -1500 -126 -193 -321 -340 -514 -390 -141 -36
-339 -10 -478 62 -100 52 -231 183 -275 275 -95 198 -80 340 70 687 59 136
332 685 423 851 70 126 112 215 170 360 22 52 53 122 71 155 113 214 105 194
89 225 -12 24 -13 35 -2 67 7 22 19 38 27 38 29 0 61 42 96 125 19 46 37 95
39 109 2 14 15 80 30 146 42 194 44 206 51 288 6 74 5 77 -15 77 -11 0 -21 2
-21 5 0 29 59 240 99 350 66 187 161 438 171 450 4 6 22 46 40 90 18 44 65
152 105 241 40 89 96 221 123 295 28 74 85 215 127 314 184 429 321 765 381
935 31 85 62 173 70 194 8 21 29 82 46 135 55 173 80 219 160 293 72 66 73 67
72 117 0 37 4 52 15 57 9 3 74 9 144 12 115 4 129 7 139 25 10 20 9 20 -133
14 -79 -4 -387 -9 -684 -12 -656 -6 -723 -9 -851 -34 -263 -51 -569 -197 -794
-379 -76 -61 -266 -248 -295 -289 -27 -38 -2 -26 45 23 119 122 456 353 664
455 195 95 377 141 604 153 53 3 321 8 595 11 l497 6 11 -28 c9 -24 7 -30 -18
-47 -94 -66 -182 -196 -218 -324 -41 -145 -94 -296 -185 -527 -167 -427 -250
-628 -340 -820 -23 -49 -61 -141 -86 -205 -25 -63 -65 -160 -89 -215 -24 -55
-69 -161 -100 -235 -31 -74 -96 -225 -145 -335 -49 -110 -119 -276 -156 -370
-37 -93 -72 -174 -77 -180 -15 -17 4 66 28 120 29 67 68 196 61 203 -3 3 -6
-2 -6 -11 0 -9 -5 -19 -10 -22 -7 -4 -9 2 -4 19 3 14 4 26 0 26 -7 0 -59 -112
-80 -172 -9 -26 -20 -56 -25 -65 -16 -32 -61 -131 -71 -158 -21 -54 9 -12 49
69 23 47 46 88 52 92 8 4 8 0 0 -14 -6 -11 -11 -31 -11 -44 0 -14 -8 -33 -17
-44 -10 -10 -18 -25 -19 -31 -3 -39 -5 -44 -13 -39 -5 3 -16 -5 -25 -19 -21
-32 -34 -32 -42 1 -4 16 1 40 15 67 11 23 43 98 70 167 142 359 223 545 348
797 76 153 155 307 175 343 56 96 46 96 -20 -1 -81 -119 -172 -239 -182 -239
-4 0 -59 -51 -121 -114 -63 -62 -135 -128 -160 -147 -25 -19 -106 -80 -180
-135 -74 -56 -226 -163 -339 -237 -555 -367 -665 -452 -910 -704 -208 -214
-284 -321 -355 -495 -129 -320 -138 -639 -30 -966 74 -221 178 -407 342 -612
73 -91 117 -165 108 -181 -16 -24 -183 134 -286 272 -122 163 -253 428 -304
614 -48 178 -59 260 -59 450 0 156 3 193 23 275 43 175 124 363 212 492 22 32
39 61 39 64 0 4 12 18 26 31 14 13 27 30 28 39 2 15 93 105 236 231 91 81 182
142 600 408 470 299 647 423 842 592 243 211 461 478 576 708 155 310 472
1132 472 1223 0 26 -7 42 -25 58 -24 21 -39 22 -293 29 -406 12 -793 1 -916
-25 -338 -72 -599 -218 -847 -478 -137 -142 -238 -293 -300 -447 -99 -247 -97
-538 4 -730 42 -80 165 -203 237 -237 158 -75 348 -77 499 -6 25 12 51 24 56
26 25 11 -55 -62 -91 -84 -84 -49 -232 -62 -369 -33 -159 35 -334 178 -413
340 -68 139 -85 218 -85 399 0 137 3 167 27 260 53 206 166 451 298 649 162
243 396 469 640 617 253 153 504 244 773 278 105 14 379 16 2241 16 1373 0
2158 4 2225 10 129 13 281 42 421 80 109 30 435 158 543 213 92 47 258 116
278 117 16 0 18 -5 12 -32z m-6071 -1578 c107 -55 164 -163 152 -289 -19 -205
-214 -361 -450 -361 -78 0 -191 21 -209 39 -5 5 20 7 55 4 119 -10 278 48 352
127 116 124 148 299 73 404 -40 56 -156 91 -221 66 -39 -14 -33 8 7 26 51 23
180 15 241 -16z m5082 -111 c15 -16 36 -29 46 -29 27 0 21 -13 -13 -30 -30
-14 -48 -39 -65 -85 -6 -17 -8 -15 -14 12 -8 35 -36 83 -48 83 -4 0 -13 4 -21
9 -10 7 -4 18 28 50 22 22 41 51 42 64 1 16 3 12 9 -11 4 -19 20 -47 36 -63z
m-5169 46 c24 -16 63 -71 63 -90 0 -5 -7 2 -17 15 -33 51 -67 80 -100 86 -18
3 -33 10 -33 14 0 11 56 -5 87 -25z m3933 -118 c440 -105 802 -379 984 -745
74 -148 96 -243 96 -406 0 -305 -127 -596 -369 -848 -127 -133 -239 -216 -396
-293 -198 -97 -393 -146 -580 -144 -129 1 -145 12 -38 27 458 66 769 283 899
630 97 257 65 565 -85 807 -170 274 -421 436 -739 474 -96 12 -260 3 -345 -19
-131 -34 -271 -100 -375 -177 -252 -186 -427 -477 -478 -793 -19 -119 -14
-321 10 -425 36 -159 128 -345 241 -490 63 -80 282 -300 430 -430 156 -137
422 -384 550 -511 418 -413 627 -749 711 -1144 44 -203 43 -482 -3 -679 -147
-645 -665 -1127 -1311 -1221 -124 -18 -452 -7 -562 18 -195 46 -334 108 -516
231 -146 98 -239 190 -293 291 -53 101 -71 172 -78 316 -19 387 139 687 442
839 102 51 154 63 273 63 79 0 82 -1 82 -22 0 -22 -3 -23 -72 -19 -56 4 -87 0
-130 -15 -128 -46 -206 -120 -251 -240 -18 -47 -21 -79 -21 -182 0 -109 3
-135 27 -205 37 -110 89 -194 177 -285 290 -299 765 -364 1170 -160 218 110
411 338 498 585 62 175 73 419 28 597 -46 181 -137 358 -282 546 -101 131
-417 442 -704 692 -319 278 -566 536 -685 715 -98 147 -192 347 -226 479 -114
448 -78 833 116 1232 87 179 181 311 330 460 225 226 455 361 748 439 139 37
214 44 427 40 165 -3 211 -7 300 -28z m-4470 -367 c0 -5 -2 -10 -4 -10 -3 0
-8 5 -11 10 -3 6 -1 10 4 10 6 0 11 -4 11 -10z m214 -25 c3 -8 1 -15 -4 -15
-6 0 -10 7 -10 15 0 8 2 15 4 15 2 0 6 -7 10 -15z m758 -791 c-27 -55 -65
-133 -83 -174 -18 -41 -37 -81 -42 -87 -17 -23 -159 -353 -247 -573 -10 -25
-31 -67 -47 -95 -27 -48 -28 -49 -31 -22 -2 16 3 36 10 45 9 11 10 14 1 8 -14
-8 -16 -2 -7 32 4 14 12 21 20 18 8 -3 14 -1 14 5 0 6 6 25 14 42 24 55 29 72
27 85 -1 8 4 21 13 30 19 23 32 72 17 72 -6 0 -11 -8 -11 -17 0 -9 -6 -24 -13
-32 -7 -9 -33 -59 -57 -111 -24 -52 -49 -100 -57 -106 -15 -13 -18 -38 -3 -29
6 3 10 1 10 -4 0 -6 -7 -11 -15 -11 -9 0 -18 -8 -22 -17 -3 -10 -13 -26 -21
-35 -8 -10 -12 -18 -8 -18 4 0 -5 -15 -19 -34 -15 -19 -31 -47 -36 -63 -8 -26
-9 -26 -4 7 2 19 31 89 64 155 32 66 67 145 76 175 20 60 208 436 271 540 22
36 45 76 52 90 7 14 34 51 60 81 26 30 63 76 82 101 19 25 36 45 38 43 2 -1
-19 -47 -46 -101z m3178 36 c0 -51 33 -208 50 -241 9 -16 22 -19 73 -19 34 0
80 -5 102 -12 l40 -12 -40 -7 c-22 -4 -70 -9 -107 -10 l-68 -3 -24 -75 c-14
-42 -28 -100 -32 -128 -4 -29 -10 -51 -14 -48 -4 3 -13 35 -20 72 -16 85 -53
170 -77 176 -10 3 -36 8 -58 11 -22 4 -53 9 -69 12 -46 10 -10 24 59 24 33 0
66 4 74 9 19 12 50 99 74 213 23 103 37 118 37 38z m-3386 -232 c-4 -7 -14
-21 -23 -31 -8 -10 -24 -33 -36 -52 -11 -18 -59 -92 -107 -163 -83 -124 -205
-353 -223 -417 l-9 -30 -4 28 c-6 48 -24 35 -96 -71 -18 -27 -36 -57 -39 -66
-4 -9 -11 -16 -16 -16 -19 0 54 117 107 170 33 34 67 82 88 126 18 39 62 113
96 165 69 103 82 129 67 129 -5 0 -15 -12 -21 -27 -12 -28 -97 -155 -170 -256
-21 -28 -38 -59 -38 -68 0 -10 -21 -41 -47 -71 -27 -29 -57 -69 -67 -88 -11
-19 -40 -66 -65 -105 -25 -38 -55 -90 -67 -115 -12 -25 -46 -88 -75 -140 -85
-151 -165 -333 -234 -534 -32 -92 -37 -118 -33 -172 5 -73 -6 -84 -22 -21 -6
23 -13 49 -16 58 -16 55 280 747 388 906 15 23 28 44 28 47 0 3 14 25 30 49
17 25 30 49 30 53 0 5 13 23 30 40 16 18 27 34 24 37 -3 3 23 42 58 87 34 45
71 96 81 113 10 17 35 50 55 75 29 36 33 45 21 53 -12 8 -12 9 1 7 8 -2 26 8
39 21 19 19 22 28 13 41 -9 14 -6 17 19 17 23 0 42 13 88 64 33 35 57 67 55
71 -2 4 16 27 42 52 47 46 61 56 48 34z m-164 -126 c0 -5 -10 -13 -22 -19 -13
-6 -42 -26 -65 -44 -24 -19 -61 -47 -84 -64 -22 -16 -51 -39 -63 -50 -13 -11
-36 -28 -52 -37 -16 -9 -31 -27 -32 -39 -3 -17 -6 -19 -12 -8 -7 11 -13 10
-32 -7 -13 -11 -40 -31 -60 -45 -21 -13 -38 -27 -38 -31 0 -4 12 -14 26 -21
16 -8 22 -17 16 -21 -15 -9 -42 4 -42 20 0 20 -6 18 -57 -18 -38 -27 -42 -34
-25 -36 11 -2 28 -13 38 -24 20 -22 18 -22 -29 2 -25 12 -32 12 -55 -1 -16 -9
-30 -27 -33 -44 -4 -17 -7 -22 -8 -12 -1 24 -5 23 -67 -25 -45 -33 -52 -43
-40 -50 27 -15 18 -30 -14 -23 -26 6 -35 1 -67 -34 -20 -23 -42 -41 -49 -41
-16 0 -55 -50 -48 -61 3 -5 -2 -6 -10 -3 -24 9 -63 -38 -71 -84 -7 -44 -25
-48 -25 -6 0 13 -1 24 -2 24 -2 0 -42 -37 -91 -83 -52 -49 -87 -90 -87 -101 0
-14 -3 -17 -11 -9 -17 17 -187 -167 -312 -337 -10 -14 -9 -8 4 15 58 103 253
322 414 465 33 29 76 67 95 85 103 94 404 338 560 453 47 35 135 100 196 145
163 121 243 177 250 177 2 0 4 -4 4 -8z m-155 -152 c3 -5 1 -10 -4 -10 -6 0
-11 5 -11 10 0 6 2 10 4 10 3 0 8 -4 11 -10z m-67 -76 c13 8 26 -10 17 -24 -4
-6 -15 -4 -30 6 -14 9 -22 21 -19 26 4 6 9 6 14 -2 4 -7 12 -10 18 -6z m-74
-82 c14 -8 -18 -22 -36 -16 -10 3 -18 1 -18 -5 0 -6 -7 -11 -15 -11 -21 0 -18
16 6 34 19 13 37 13 63 -2z m4386 -47 c0 -18 -4 -23 -15 -19 -16 6 -20 26 -8
37 13 14 23 6 23 -18z m-4365 5 c8 -13 -5 -13 -25 0 -13 8 -13 10 2 10 9 0 20
-4 23 -10z m-60 -10 c-3 -5 -11 -10 -16 -10 -6 0 -7 5 -4 10 3 6 11 10 16 10
6 0 7 -4 4 -10z m518 -32 c-6 -44 -31 -104 -39 -95 -3 3 2 19 10 36 9 16 16
39 16 50 0 19 9 51 15 51 2 0 1 -19 -2 -42z m-548 -20 c4 -16 3 -28 -2 -28
-11 0 -33 57 -25 65 9 8 20 -7 27 -37z m-50 -17 c-3 -6 -11 -8 -17 -5 -6 4 -5
9 3 15 16 10 23 4 14 -10z m-53 -23 c-7 -7 -12 -8 -12 -2 0 14 12 26 19 19 2
-3 -1 -11 -7 -17z m50 -92 c-3 -5 -10 0 -15 12 -6 12 -13 22 -17 22 -4 0 -5
12 -2 26 5 26 5 25 23 -12 9 -21 15 -43 11 -48z m-92 52 c0 -7 -28 -22 -63
-32 -34 -10 -67 -23 -74 -28 -6 -5 -14 -5 -17 0 -3 5 28 20 69 33 41 13 75 27
75 32 0 4 2 7 5 7 3 0 5 -6 5 -12z m59 -84 c-5 -7 -8 -17 -7 -24 2 -7 -2 -14
-8 -17 -7 -2 -10 5 -7 22 4 18 1 25 -11 25 -9 0 -16 -7 -16 -17 0 -9 -3 -14
-6 -10 -15 15 7 36 35 34 21 -1 26 -5 20 -13z m-169 -15 c0 -6 -4 -8 -9 -5
-15 10 -41 -5 -41 -23 -1 -14 -2 -13 -11 2 -6 10 -9 20 -7 21 1 1 14 7 28 13
26 11 40 8 40 -8z m27 -47 c-7 -2 -22 -8 -34 -14 -13 -6 -26 -8 -30 -5 -3 4 1
7 10 7 10 0 17 8 17 19 0 17 3 18 25 8 13 -7 19 -13 12 -15z m79 2 c-4 -10 1
-25 10 -35 25 -28 -1 -23 -32 6 -26 24 -26 25 -5 25 11 0 21 5 21 10 0 6 3 10
6 10 3 0 3 -7 0 -16z m644 -55 c-17 -68 -23 -57 -8 15 7 32 14 53 16 47 2 -7
-2 -34 -8 -62z m-723 19 c-3 -8 -6 -5 -6 6 -1 11 2 17 5 13 3 -3 4 -12 1 -19z
m-209 -20 c-2 -24 -9 -34 -23 -36 -19 -3 -19 -2 -1 12 12 10 17 23 13 36 -3
11 -1 20 5 20 5 0 8 -15 6 -32z m105 6 c-3 -9 6 -27 23 -45 15 -16 23 -29 18
-29 -17 0 -54 49 -54 70 0 11 4 20 10 20 5 0 7 -7 3 -16z m689 -61 c-11 -21
-23 -54 -27 -73 -4 -19 -16 -62 -26 -95 -11 -33 -27 -107 -35 -164 -15 -105
-19 -120 -30 -108 -11 11 18 198 41 272 13 39 26 84 30 100 7 34 54 119 62
112 2 -3 -4 -22 -15 -44z m-612 28 c0 -5 -9 -7 -20 -4 -11 3 -20 7 -20 9 0 2
9 4 20 4 11 0 20 -4 20 -9z m46 -17 c1 -14 1 -24 0 -22 0 2 -10 13 -20 26 -19
22 -19 22 0 22 13 0 19 -8 20 -26z m-191 6 c3 -6 -1 -7 -9 -4 -18 7 -21 14 -7
14 6 0 13 -4 16 -10z m-118 -32 c-3 -7 -5 -2 -5 12 0 14 2 19 5 13 2 -7 2 -19
0 -25z m160 26 c-3 -3 -12 -4 -19 -1 -8 3 -5 6 6 6 11 1 17 -2 13 -5z m-73
-38 c-3 -9 -10 -13 -16 -10 -5 3 -4 12 3 20 15 18 22 13 13 -10z m-84 -26 c0
-5 -4 -10 -9 -10 -6 0 -13 5 -16 10 -3 6 1 10 9 10 9 0 16 -4 16 -10z m153 -5
c-3 -9 -8 -14 -10 -11 -3 3 -2 9 2 15 9 16 15 13 8 -4z m77 -11 c0 -2 -9 -4
-21 -4 -11 0 -18 4 -14 10 5 8 35 3 35 -6z m-184 -20 c-3 -9 -6 -20 -6 -25 0
-5 -4 -9 -10 -9 -5 0 -10 11 -10 25 0 16 6 25 16 25 11 0 14 -5 10 -16z m136
-66 c-13 -13 -26 8 -17 30 6 16 7 16 17 -1 7 -13 7 -22 0 -29z m-122 2 c0 13
1 13 10 0 15 -23 12 -28 -15 -26 -19 1 -25 6 -25 25 0 24 0 24 15 5 11 -14 14
-15 15 -4z m-230 -30 c0 -15 -5 -12 -26 11 -19 22 -19 22 4 10 12 -6 22 -16
22 -21z m45 20 c-3 -5 -14 -10 -23 -9 -14 0 -13 2 3 9 27 11 27 11 20 0z m68
-20 c-5 -19 -23 -39 -23 -25 0 9 20 45 24 45 2 0 2 -9 -1 -20z m208 3 c13 -16
12 -17 -3 -4 -10 7 -18 15 -18 17 0 8 8 3 21 -13z m-396 -53 c-3 -5 1 -10 9
-10 9 0 16 -4 16 -10 0 -13 -13 -13 -28 2 -9 9 -16 8 -30 -3 -10 -8 -7 -4 6 9
24 23 38 29 27 12z m6369 -6 c8 -20 -1 -34 -20 -34 -20 0 -30 30 -13 41 20 12
26 11 33 -7z m-6273 -25 c5 -11 8 -19 6 -19 -7 0 -47 37 -47 43 0 13 31 -6 41
-24z m2041 9 c-7 -7 -12 -8 -12 -2 0 14 12 26 19 19 2 -3 -1 -11 -7 -17z
m-1984 -13 c-3 -3 -9 2 -12 12 -6 14 -5 15 5 6 7 -7 10 -15 7 -18z m92 15 c0
-5 -12 -10 -26 -10 -14 0 -23 4 -19 10 3 6 15 10 26 10 10 0 19 -4 19 -10z
m-180 -30 c0 -11 -4 -20 -9 -20 -5 0 -7 9 -4 20 3 11 7 20 9 20 2 0 4 -9 4
-20z m66 -29 c-12 -19 -24 -12 -19 10 4 13 9 17 15 11 6 -6 7 -15 4 -21z m114
-1 c0 -5 -5 -10 -11 -10 -5 0 -7 5 -4 10 3 6 8 10 11 10 2 0 4 -4 4 -10z
m-225 -10 c3 -5 1 -10 -4 -10 -6 0 -11 5 -11 10 0 6 2 10 4 10 3 0 8 -4 11
-10z m-106 -32 c11 -30 9 -31 -23 -17 -28 13 -33 24 -13 32 22 10 28 7 36 -15z
m231 -28 c-13 -9 -13 -11 0 -20 13 -8 13 -10 -1 -10 -9 0 -18 3 -22 6 -10 10
5 34 22 34 14 0 14 -2 1 -10z m-137 -25 c-8 -22 -22 -18 -16 5 3 11 9 17 14
15 4 -3 6 -12 2 -20z m-153 -52 c0 -19 -3 -24 -10 -17 -6 6 -8 18 -4 27 9 24
14 21 14 -10z m210 -8 c0 -5 -5 -3 -10 5 -5 8 -10 20 -10 25 0 6 5 3 10 -5 5
-8 10 -19 10 -25z m32 3 c-7 -7 -12 -8 -12 -2 0 14 12 26 19 19 2 -3 -1 -11
-7 -17z m68 2 c0 -5 -4 -10 -10 -10 -5 0 -10 5 -10 10 0 6 5 10 10 10 6 0 10
-4 10 -10z m-210 -15 c0 -2 -9 -9 -20 -15 -16 -9 -18 -8 -14 5 5 13 34 22 34
10z m65 -25 c-3 -5 -11 -10 -16 -10 -6 0 -7 5 -4 10 3 6 11 10 16 10 6 0 7 -4
4 -10z m-355 -80 c0 -5 -2 -10 -4 -10 -3 0 -8 5 -11 10 -3 6 -1 10 4 10 6 0
11 -4 11 -10z m165 0 c-3 -5 -14 -10 -23 -10 -15 0 -15 2 -2 10 20 13 33 13
25 0z m6312 -86 c-3 -3 -12 -4 -19 -1 -8 3 -5 6 6 6 11 1 17 -2 13 -5z m-6596
-31 c-12 -20 -14 -14 -5 12 4 9 9 14 11 11 3 -2 0 -13 -6 -23z m64 7 c3 -5 1
-10 -4 -10 -6 0 -11 5 -11 10 0 6 2 10 4 10 3 0 8 -4 11 -10z m75 0 c0 -5 -4
-10 -10 -10 -5 0 -10 5 -10 10 0 6 5 10 10 10 6 0 10 -4 10 -10z m402 -32 c-7
-7 -12 -8 -12 -2 0 14 12 26 19 19 2 -3 -1 -11 -7 -17z m12 -165 c19 -60 19
-63 7 -63 -15 0 -62 107 -55 125 10 25 28 1 48 -62z m-504 -23 c0 -5 -5 -10
-11 -10 -5 0 -7 5 -4 10 3 6 8 10 11 10 2 0 4 -4 4 -10z m6260 -216 c0 -39 33
-70 84 -80 l40 -7 -50 -22 c-57 -25 -69 -38 -79 -83 -5 -26 -10 -31 -20 -22
-8 7 -19 27 -25 46 -13 39 -35 54 -79 54 -45 0 -38 13 21 41 47 21 55 30 73
76 20 54 35 53 35 -3z m-1659 -534 c10 0 19 -4 19 -10 0 -5 -7 -10 -15 -10 -8
0 -15 -8 -15 -17 0 -15 -1 -15 -12 -1 -7 9 -22 18 -33 21 -18 4 -18 5 3 6 15
1 22 8 23 24 1 16 2 18 6 5 2 -10 13 -18 24 -18z m150 -117 c-9 -16 -10 -14
-11 12 0 21 3 26 11 18 8 -8 8 -16 0 -30z m-197 -502 c4 -47 8 -87 10 -89 3
-2 42 -6 88 -10 87 -6 79 -19 -13 -21 -61 -1 -77 -20 -81 -96 -3 -68 -22 -74
-24 -9 -2 61 -11 91 -31 99 -10 3 -49 9 -88 13 -56 5 -64 7 -40 13 17 4 56 7
87 8 65 1 63 -2 73 109 4 40 8 72 10 70 1 -2 5 -41 9 -87z m-2993 -96 c5 -5
27 -15 47 -21 l37 -12 -41 -1 c-42 -1 -42 -1 -52 -48 l-10 -48 -1 46 c-1 46
-1 46 -43 56 l-43 11 37 1 c36 1 38 3 45 44 7 38 8 39 11 12 2 -16 8 -34 13
-40z m3011 -207 c-6 -6 -15 -8 -19 -4 -4 4 -1 11 7 16 19 12 27 3 12 -12z
m-1902 -238 c0 -5 -4 -10 -10 -10 -5 0 -10 5 -10 10 0 6 5 10 10 10 6 0 10 -4
10 -10z"/>
<path d="M11310 11643 c-36 -31 -105 -94 -155 -141 -158 -150 -272 -221 -440
-275 -230 -75 -275 -77 -1527 -77 -1182 0 -1214 -1 -1359 -51 -160 -55 -319
-159 -451 -298 -178 -187 -283 -367 -441 -761 -52 -129 -120 -298 -152 -375
-31 -77 -94 -237 -140 -355 -46 -118 -101 -258 -123 -310 -22 -52 -72 -174
-112 -270 -40 -96 -95 -227 -122 -290 -28 -63 -75 -176 -105 -250 -100 -247
-215 -466 -154 -294 16 44 35 93 44 110 8 16 24 58 35 94 11 36 32 94 46 129
14 36 26 69 26 75 0 30 -27 -29 -95 -214 -41 -113 -79 -212 -84 -221 -8 -14
-46 -108 -71 -173 -6 -16 -13 -27 -15 -24 -16 15 243 762 340 983 52 119 66
156 165 415 60 156 156 403 265 680 42 107 95 242 117 300 108 279 131 332
183 430 80 147 211 343 285 423 87 94 211 191 305 239 44 22 96 56 116 74 73
71 -3 67 1449 74 1301 6 1305 7 1395 29 203 49 350 107 461 183 57 38 46 46
-27 19 -198 -72 -388 -132 -469 -147 -87 -17 -208 -19 -1380 -25 -707 -4
-1305 -10 -1329 -14 -25 -4 -52 -3 -65 3 -11 6 -55 13 -97 16 -42 3 -83 8 -93
12 -22 8 -20 -12 3 -35 13 -13 41 -22 80 -27 58 -6 77 -18 47 -30 -8 -3 -16
-14 -19 -25 -3 -13 -11 -17 -21 -13 -9 3 -16 2 -16 -4 0 -5 -18 -17 -39 -25
-138 -56 -355 -245 -455 -397 -137 -208 -241 -400 -300 -556 -21 -54 -53 -137
-71 -184 -18 -47 -49 -130 -70 -185 -32 -84 -95 -239 -150 -370 -37 -87 -60
-149 -114 -297 -64 -177 -147 -385 -218 -543 -24 -55 -57 -129 -73 -165 -38
-86 -143 -352 -165 -415 -9 -27 -34 -86 -55 -131 -38 -79 -61 -176 -75 -309
-18 -166 -68 -381 -115 -490 -26 -59 -33 -165 -12 -165 20 0 8 -25 -14 -28
-47 -7 -64 -13 -64 -23 0 -6 -25 -54 -55 -107 -71 -125 -111 -205 -182 -372
-31 -74 -113 -238 -181 -365 -195 -359 -358 -705 -393 -830 l-8 -30 17 24 c9
14 38 72 63 130 44 103 127 266 272 536 39 72 101 191 140 265 38 74 78 144
87 155 10 11 25 34 33 50 21 42 49 64 147 120 106 60 169 109 233 183 151 172
215 352 242 684 13 153 18 179 65 330 29 90 72 213 95 273 24 61 55 144 70
185 15 41 83 215 150 385 68 171 144 364 170 430 64 163 206 519 300 750 43
105 105 262 140 350 123 315 236 505 400 671 120 122 207 184 326 235 110 48
215 75 341 89 61 6 501 10 1190 10 694 0 1124 4 1176 10 226 29 423 103 577
218 81 61 98 78 215 212 36 41 73 81 82 88 22 16 62 72 51 71 -4 0 -37 -25
-73 -56z"/>
<path d="M5833 11139 c-171 -16 -322 -57 -480 -128 -89 -41 -100 -53 -23 -26
70 25 258 67 375 84 177 27 328 31 745 22 234 -5 437 -12 453 -16 43 -11 31 7
-27 43 l-54 32 -454 -1 c-249 -1 -490 -5 -535 -10z"/>
<path d="M5970 8283 c-13 -32 -33 -76 -45 -98 -18 -33 -35 -81 -81 -224 -4
-11 -2 -11 10 -2 8 7 23 34 32 59 10 26 22 52 27 59 5 7 6 17 3 22 -4 5 -2 12
3 16 6 3 15 20 20 38 6 18 21 65 35 106 31 90 28 105 -4 24z"/>
<path d="M4055 7730 c-10 -11 -14 -20 -9 -20 5 0 15 9 22 20 7 11 11 20 9 20
-2 0 -12 -9 -22 -20z"/>
<path d="M6057 7510 c-3 -11 -1 -20 4 -20 5 0 9 9 9 20 0 11 -2 20 -4 20 -2 0
-6 -9 -9 -20z"/>
<path d="M5510 7402 c0 -14 11 -21 26 -15 21 8 17 23 -6 23 -11 0 -20 -4 -20
-8z"/>
<path d="M7170 6905 c-7 -8 -9 -26 -5 -43 5 -23 -1 -39 -24 -74 -30 -44 -126
-235 -161 -318 -10 -25 -42 -97 -70 -160 -80 -177 -82 -182 -71 -176 15 10
113 180 155 271 63 136 189 357 227 397 19 21 43 38 53 38 14 0 11 7 -15 31
-29 27 -61 49 -72 49 -3 0 -10 -7 -17 -15z"/>
<path d="M5097 6251 c-22 -45 -21 -49 4 -17 11 14 19 32 17 38 -3 7 -12 -3
-21 -21z"/>
<path d="M4960 5984 c0 -8 5 -12 10 -9 6 4 8 11 5 16 -9 14 -15 11 -15 -7z"/>
<path d="M4617 5267 c-11 -29 -9 -43 4 -30 6 6 9 19 7 29 -3 18 -4 18 -11 1z"/>
<path d="M8935 10016 c-193 -29 -310 -66 -478 -153 -245 -127 -464 -337 -621
-597 -99 -163 -174 -365 -207 -555 -28 -162 -27 -398 1 -536 87 -430 267 -692
810 -1184 438 -396 492 -447 649 -617 269 -289 405 -512 477 -784 26 -97 29
-119 28 -285 0 -161 -3 -191 -26 -282 -110 -426 -404 -740 -803 -855 -129 -37
-204 -48 -345 -48 -212 0 -397 47 -567 143 -216 123 -338 267 -414 487 -17 51
-23 96 -27 204 -5 153 -9 155 -48 24 -38 -128 -49 -240 -35 -363 20 -178 64
-275 175 -384 191 -189 440 -312 711 -351 108 -15 348 -12 456 6 171 28 411
123 548 216 321 218 543 553 613 924 29 157 31 404 5 544 -87 462 -379 858
-1115 1513 -258 230 -485 452 -564 552 -111 140 -206 327 -259 513 -47 165
-49 398 -4 589 62 269 169 465 359 661 181 186 349 285 595 349 82 21 119 25
251 26 164 1 223 -7 355 -50 264 -85 483 -259 628 -499 48 -80 104 -226 128
-333 23 -107 25 -281 4 -382 -18 -84 -14 -101 8 -32 41 124 47 380 14 503 -58
211 -144 358 -296 510 -180 179 -366 278 -613 325 -110 21 -338 21 -438 0
-386 -80 -706 -327 -919 -708 -47 -86 -96 -212 -126 -329 -36 -137 -46 -401
-21 -548 45 -258 167 -496 368 -721 116 -128 186 -196 503 -479 645 -576 904
-899 1029 -1282 51 -156 67 -247 73 -413 5 -135 2 -163 -21 -280 -64 -311
-177 -527 -381 -731 -200 -199 -420 -314 -715 -374 -93 -19 -127 -21 -295 -17
-159 4 -205 9 -280 29 -210 57 -347 127 -504 258 -165 137 -243 335 -240 605
2 97 2 98 11 45 41 -236 93 -345 228 -481 102 -103 166 -150 288 -209 168 -82
314 -114 532 -114 166 0 253 13 396 59 189 62 318 141 472 290 173 166 301
401 349 642 24 123 24 378 0 491 -69 323 -244 603 -604 968 -156 158 -208 207
-555 517 -361 323 -547 540 -662 771 -112 227 -149 383 -150 631 -2 397 130
739 403 1052 216 246 514 413 834 469 138 24 388 15 520 -20 338 -88 649 -317
803 -592 92 -164 132 -303 139 -477 2 -55 6 -101 9 -104 11 -12 26 80 26 167
0 243 -111 480 -325 696 -248 249 -566 387 -923 399 -78 3 -162 -1 -217 -9z"/>
</g>
</svg>
